<svg version="1.1" id="Layer_1" xmlns="http://www.w3.org/2000/svg" xmlns:xlink="http://www.w3.org/1999/xlink" x="0px" y="0px"
	 width="100%" viewBox="0 0 1280 720" enable-background="new 0 0 1280 720" xml:space="preserve">
<path fill="#000000" opacity="1.000000" stroke="none" 
	d="
M1170.000000,721.000000 
	C780.048584,721.000000 390.597168,721.000000 1.072887,721.000000 
	C1.072887,481.078552 1.072887,241.157074 1.072887,1.117798 
	C427.666656,1.117798 854.333313,1.117798 1280.992554,1.117798 
	C1280.992554,241.069778 1280.992554,481.034882 1280.988770,721.000000 
	C1244.156738,721.000000 1207.328369,721.000000 1170.000000,721.000000 
M752.059814,383.658875 
	C753.735779,383.383392 755.411682,383.107910 757.537476,383.175201 
	C760.350342,383.405579 763.163147,383.635956 766.907898,383.994904 
	C774.677979,384.002716 782.449158,383.937195 790.217834,384.045776 
	C794.881104,384.110901 797.123108,381.712158 798.066772,377.399689 
	C798.400940,375.872162 799.408997,374.492096 800.109375,373.044678 
	C801.905396,374.042511 803.808105,374.891479 805.467224,376.080353 
	C807.094910,377.246765 808.474915,378.758820 810.208984,380.714417 
	C811.463501,381.417328 812.718018,382.120209 814.592957,382.996582 
	C815.020264,383.034515 815.447571,383.072418 816.297058,383.874268 
	C817.292236,383.915405 818.308289,384.106598 819.278809,383.971130 
	C823.065430,383.442535 827.173157,381.548157 830.554077,382.446716 
	C842.032043,385.497253 853.575195,383.363861 865.054810,383.895813 
	C868.448730,384.053101 872.358582,382.439575 871.891663,378.142578 
	C871.186218,371.650330 870.951233,365.261475 871.985657,358.820770 
	C872.060059,358.357635 872.011108,357.714935 871.740845,357.381439 
	C869.455505,354.560425 870.464111,351.927582 871.587585,348.903687 
	C873.667419,343.305359 871.734131,339.007904 865.644653,338.069733 
	C853.994934,336.274963 842.191528,335.567902 830.560303,338.921539 
	C829.015747,339.366882 827.190552,339.455505 825.625061,339.114105 
	C813.440063,336.456818 801.241211,335.017303 788.748718,336.894287 
	C785.036377,337.452087 781.141357,336.726959 777.329285,336.702148 
	C769.782166,336.653046 762.230042,336.520752 754.688965,336.735962 
	C749.646606,336.879852 744.543884,338.315521 739.605042,337.817047 
	C733.365784,337.187286 729.525757,338.906464 727.227112,345.339447 
	C725.651367,349.748993 720.953003,352.464050 716.304382,351.692291 
	C711.883362,350.958282 711.951050,347.734924 711.967468,344.319489 
	C711.984680,340.712860 709.893738,338.418274 706.406067,338.073364 
	C702.651367,337.702026 699.073853,338.169617 697.642212,342.724884 
	C693.959656,354.442200 697.350647,366.062653 697.847412,377.734161 
	C698.091553,383.469818 702.198669,383.855469 705.982239,383.872925 
	C710.292053,383.892853 711.974670,380.830444 712.063232,376.616730 
	C712.137756,373.071686 713.059509,369.818146 717.338562,369.024872 
	C724.140991,367.763824 728.072815,370.589661 729.011230,377.453003 
	C729.705322,382.529541 733.260498,385.663910 737.773621,383.757324 
	C742.578064,381.727600 746.743530,383.063873 751.827026,383.555725 
	C751.826416,383.324921 751.825806,383.094147 751.930237,382.868774 
	C751.930237,382.868774 751.923523,382.857239 752.059814,383.658875 
M542.866760,380.041626 
	C548.845154,372.261505 548.606873,364.141083 542.064087,353.530396 
	C546.655945,350.676971 547.136353,346.317352 545.924805,341.685730 
	C545.551453,340.258514 544.056396,338.460449 542.718384,338.077301 
	C539.035950,337.022919 535.182190,336.225708 531.364380,336.059937 
	C524.410461,335.758026 517.363342,335.393829 510.492126,336.209595 
	C506.232727,336.715302 502.357208,338.317963 497.745270,337.159302 
	C492.888763,335.939209 489.904816,339.189026 488.903168,344.423004 
	C487.944946,349.430054 486.813141,354.482727 484.960663,359.202545 
	C484.175720,361.202423 481.204712,363.789673 479.499237,363.604584 
	C477.518799,363.389587 475.547852,360.626556 474.118866,358.586914 
	C473.015686,357.012329 472.754913,354.847595 472.000763,352.033600 
	C471.997467,350.368469 471.993622,348.703308 471.991089,347.038177 
	C471.989807,346.205597 471.911438,345.364014 472.004669,344.542023 
	C472.427307,340.816162 471.158569,337.786530 467.382019,337.099884 
	C463.116516,336.324402 459.072571,338.121246 458.165253,342.451447 
	C456.840179,348.775604 456.483032,355.327637 456.057678,361.805115 
	C455.832336,365.236450 454.647339,367.042938 451.054535,367.006592 
	C445.393616,366.949310 439.730682,366.932587 434.070679,367.025726 
	C431.538910,367.067383 430.021545,366.555450 429.951202,363.516357 
	C429.799072,356.940338 429.264191,350.374176 429.022736,343.798950 
	C428.856049,339.260620 426.725159,337.076080 422.079346,337.043732 
	C418.700531,337.020203 415.028107,340.364624 415.003632,343.729980 
	C414.937012,352.887756 414.884674,362.047760 415.017517,371.204163 
	C415.105347,377.261108 419.532471,382.602722 424.966919,382.948822 
	C433.687988,383.504211 442.470551,384.309479 451.157532,383.806885 
	C458.296783,383.393860 460.223022,383.166962 460.004059,374.928619 
	C459.962158,373.352051 459.998077,371.773438 459.998077,369.224731 
	C463.304291,371.848969 466.185760,373.491241 468.217651,375.861725 
	C476.523041,385.551086 484.679016,385.710876 493.796875,375.761047 
	C495.905975,374.628448 498.015076,373.495819 500.228729,372.307068 
	C501.064056,374.552216 501.930420,375.765076 501.878143,376.936951 
	C501.671814,381.564606 504.517609,383.521149 508.327362,383.659485 
	C517.077393,383.977173 525.859436,384.052124 534.598755,383.621460 
	C537.150452,383.495697 539.601807,381.333038 542.866760,380.041626 
M638.624390,383.001373 
	C639.061340,383.038422 639.498230,383.075470 640.331360,383.810059 
	C642.389709,383.578857 644.452759,383.114624 646.505676,383.155609 
	C657.080444,383.366669 667.651245,383.783234 678.226196,383.965912 
	C682.496887,384.039703 686.820618,382.661957 688.606079,378.790009 
	C691.909302,371.626617 691.464661,364.134216 688.415039,356.758575 
	C687.854309,355.402344 687.949402,353.120728 688.750488,351.966003 
	C692.784546,346.150970 689.760925,336.194916 683.049194,336.265350 
	C671.986145,336.381439 660.647522,333.600983 649.764832,338.505096 
	C647.552673,339.502045 644.200134,338.884247 641.663940,338.086639 
	C631.163757,334.784668 620.613464,335.571594 609.998413,337.010803 
	C607.262146,337.381775 604.507690,337.989136 601.773376,337.931183 
	C594.728271,337.781830 587.690796,337.295532 580.647400,337.014801 
	C579.705322,336.977295 578.753967,337.435669 577.794556,337.515442 
	C575.505371,337.705872 573.126465,338.261139 570.929932,337.863037 
	C563.012695,336.428162 558.393188,339.525543 558.050659,347.406952 
	C557.740112,354.551788 557.512817,361.761444 558.120117,368.868073 
	C558.751099,376.251312 562.599304,382.192535 567.701355,382.900604 
	C578.734192,384.431763 589.849915,385.610168 600.739868,381.736298 
	C601.209717,381.569153 601.805176,381.698303 602.333496,381.761658 
	C605.215637,382.107117 608.095093,382.475189 611.745972,382.990936 
	C616.152466,383.034332 616.794983,379.158478 616.814148,376.578156 
	C616.848450,371.941803 619.525513,369.953217 622.983826,369.192780 
	C626.801575,368.353363 630.648682,369.229767 633.014526,373.915741 
	C634.141663,377.185425 632.438293,382.032227 638.624390,383.001373 
z"/>
<path fill="#97F6C1" opacity="1.000000" stroke="none" 
	d="
M809.963623,380.119202 
	C808.474915,378.758820 807.094910,377.246765 805.467224,376.080353 
	C803.808105,374.891479 801.905396,374.042511 800.109375,373.044678 
	C799.408997,374.492096 798.400940,375.872162 798.066772,377.399689 
	C797.123108,381.712158 794.881104,384.110901 790.217834,384.045776 
	C782.449158,383.937195 774.677979,384.002716 766.563843,383.553101 
	C767.916199,382.738434 769.599670,382.139862 771.311707,382.042084 
	C774.381287,381.866791 777.468079,381.992645 780.547668,381.992645 
	C771.867371,381.005127 763.232910,380.948486 754.601624,381.086609 
	C753.666931,381.101532 752.750244,382.243927 751.825195,382.863342 
	C751.825806,383.094147 751.826416,383.324921 751.401001,383.257416 
	C749.984863,382.002472 748.994751,381.045868 747.859741,379.865784 
	C747.141541,379.762573 746.568359,379.882874 745.580017,380.006012 
	C743.781311,380.010406 742.397705,380.012024 741.006897,379.598389 
	C742.006287,376.445587 743.966309,373.664673 743.844055,370.978516 
	C743.447632,362.266205 746.372314,353.126038 741.439819,344.942108 
	C747.982605,340.762390 754.915833,340.604706 762.021851,340.915619 
	C767.453552,341.153259 772.905518,340.894165 778.344666,341.018707 
	C779.903076,341.054382 781.448608,341.656433 783.000732,342.442688 
	C783.734924,347.543365 782.093384,349.429626 777.076294,349.119141 
	C770.105347,348.687714 763.085388,349.120331 756.091248,348.963776 
	C752.555847,348.884644 750.989075,350.020660 750.914734,353.807892 
	C750.838684,357.687592 752.752686,358.105530 755.859741,358.051422 
	C763.521484,357.917999 771.188171,357.940552 778.850037,358.069092 
	C780.155029,358.090973 782.375061,358.688324 782.592346,359.462982 
	C783.970276,364.375641 784.955139,369.402710 785.951843,374.415466 
	C786.233032,375.829712 786.120422,377.322266 786.188416,378.778900 
	C786.458923,378.775665 786.729492,378.772430 787.000000,378.769196 
	C787.000000,366.511353 787.000000,354.253510 787.307617,341.713867 
	C798.073547,341.293304 808.533508,341.021423 818.988403,341.151398 
	C820.661072,341.172211 822.311401,342.992340 824.100830,344.196350 
	C824.497253,344.607056 824.764954,344.802155 825.012939,344.998260 
	C824.993164,344.999298 825.013062,344.965210 825.066650,345.381042 
	C825.075256,351.194366 825.030273,356.591888 824.774963,362.108154 
	C824.301575,362.428619 824.110168,362.683960 823.872131,363.045593 
	C823.754028,363.098267 823.745850,363.426636 823.745850,363.426636 
	C823.745850,363.426636 824.007385,363.009766 824.219849,362.893982 
	C824.696533,362.577728 824.889404,362.323181 825.411987,362.026245 
	C826.869080,363.401581 828.524048,364.638977 828.844299,366.157806 
	C829.356018,368.584564 828.981201,371.198303 828.981201,373.732971 
	C829.313293,373.725067 829.645447,373.717163 829.977539,373.709259 
	C829.977539,364.794800 829.977539,355.880341 829.991211,346.981079 
	C830.004883,346.996277 829.964111,346.995667 830.211853,346.807678 
	C830.633789,346.032562 830.807983,345.445435 831.160645,344.555298 
	C833.149658,343.182343 834.931763,341.248260 836.775757,341.187286 
	C846.394592,340.869202 856.036865,340.834747 865.650208,341.220337 
	C867.148193,341.280426 869.577393,343.937714 869.690552,345.528198 
	C869.806580,347.157806 867.961731,349.613251 866.323303,350.492432 
	C864.614258,351.409424 862.127380,350.876892 859.872803,350.595276 
	C852.814941,349.909210 845.861572,349.437347 838.920288,349.575287 
	C838.258789,349.588440 837.288635,353.404572 837.242737,355.472534 
	C837.224487,356.290833 839.302673,357.818939 840.489746,357.885071 
	C845.437195,358.160706 850.413025,358.132050 855.370056,357.964600 
	C859.584473,357.822266 863.787231,357.336792 868.322327,357.188812 
	C870.736084,360.425720 871.059692,363.337769 867.661865,365.706726 
	C858.932800,365.285095 850.511780,365.159668 842.091919,364.976929 
	C839.282959,364.915955 836.890503,364.781128 836.913330,368.905762 
	C836.935181,372.857178 838.452698,374.127991 842.248474,374.045746 
	C850.521912,373.866425 858.801941,373.991364 867.467407,374.001862 
	C868.514038,375.574707 870.122009,377.652954 869.616577,378.584045 
	C868.785339,380.115265 866.617493,381.795166 864.956360,381.855713 
	C856.059631,382.179993 847.143921,382.106201 838.238770,381.945892 
	C836.816101,381.920319 835.413940,380.760956 833.823486,379.861115 
	C833.051514,379.403046 832.458313,379.209534 831.677124,378.916321 
	C831.254639,378.642120 831.085083,378.418427 830.972778,377.897156 
	C830.836243,377.375153 830.707336,377.101532 830.578491,376.827911 
	C830.388123,377.215668 830.197693,377.603424 829.635254,378.009949 
	C826.489502,379.627197 823.813904,381.448822 820.900574,382.729858 
	C819.450012,383.367676 817.563965,383.014984 815.874878,383.110352 
	C815.447571,383.072418 815.020264,383.034515 814.249268,382.614227 
	C813.591309,381.506378 813.276978,380.780853 813.114502,379.948608 
	C813.325439,379.735077 813.461182,379.576782 813.430115,379.530426 
	C813.300964,379.337830 813.121521,379.178986 812.982361,379.002197 
	C813.004150,378.996613 812.991333,379.039764 812.870056,378.771820 
	C812.165833,378.002991 811.582886,377.502106 810.882141,376.789856 
	C810.563171,376.314819 810.308411,376.122009 809.882446,375.788574 
	C809.564148,375.313354 809.309631,375.120453 808.883789,374.786896 
	C808.565369,374.311523 808.310730,374.118500 807.884644,373.785126 
	C807.566223,373.310150 807.311829,373.117218 806.885803,372.783997 
	C806.567322,372.309174 806.312927,372.116150 805.886719,371.782928 
	C805.567871,371.308167 805.313599,371.114960 804.887390,370.782349 
	C804.568420,370.310181 804.315063,370.117310 803.955750,369.874512 
	C803.826355,369.713959 803.750244,369.672485 803.674072,369.631012 
	C803.780457,369.756897 803.886841,369.882751 804.109253,370.220856 
	C804.426086,370.697693 804.681885,370.888702 805.108215,371.219116 
	C805.425110,371.696777 805.681458,371.887756 806.108765,372.218018 
	C806.426514,372.696045 806.683289,372.887054 807.111084,373.217041 
	C807.428772,373.695099 807.685608,373.885925 808.113220,374.215515 
	C808.429993,374.693298 808.686218,374.884277 809.113892,375.214050 
	C809.431702,375.691864 809.688293,375.882904 810.116089,376.212646 
	C810.433044,376.690369 810.688965,376.881836 810.999084,377.332062 
	C811.000427,378.107513 811.002625,378.550598 810.786255,379.135498 
	C810.366211,379.557922 810.164917,379.838562 809.963623,380.119202 
M782.995178,374.771851 
	C783.059814,376.121887 783.124390,377.471924 783.189026,378.821960 
	C783.523926,378.763367 783.858765,378.704773 784.193665,378.646179 
	C783.795776,377.097473 783.397888,375.548737 782.778015,373.229889 
	C781.265869,372.824646 779.760742,372.103638 778.240295,372.069489 
	C772.078430,371.931213 765.900879,372.205902 759.753601,371.874817 
	C757.934753,371.776855 756.196106,370.190521 754.420715,369.286133 
	C756.164734,368.518555 757.875977,367.186432 759.658569,367.082947 
	C766.694092,366.674316 773.752075,366.651276 780.801697,366.485229 
	C780.791260,365.986481 780.780762,365.487762 780.770325,364.989014 
	C772.493469,364.989014 764.215759,365.059784 755.940308,364.951752 
	C752.921021,364.912323 750.832703,365.141235 750.916199,369.109833 
	C750.994324,372.821533 752.397583,374.098358 756.008606,374.039459 
	C765.003540,373.892609 774.002625,373.995911 782.995178,374.771851 
M801.590942,358.007324 
	C805.899292,358.007477 810.212280,357.886047 814.514404,358.049316 
	C817.521851,358.163452 819.170166,357.462860 819.059937,353.973938 
	C818.960510,350.827759 818.275024,348.887695 814.618896,348.979645 
	C809.154114,349.117065 803.682556,349.069061 798.215332,348.995483 
	C795.307983,348.956390 794.240967,350.219391 793.931946,353.130981 
	C793.310486,358.987610 797.245483,357.979553 801.590942,358.007324 
M799.275024,365.608124 
	C797.581360,365.933258 794.461487,366.126892 794.417419,366.604156 
	C794.031372,370.789764 794.193970,375.025970 794.193970,379.247162 
	C794.799377,379.231415 795.404785,379.215637 796.010193,379.199860 
	C796.010193,376.609467 796.226929,373.995758 795.951965,371.434875 
	C795.650391,368.626434 796.839233,367.131012 799.275024,365.608124 
M812.437561,365.110138 
	C812.946228,366.739655 813.454834,368.369171 814.011108,370.151154 
	C816.581177,367.944580 818.154541,366.593781 819.998352,365.010742 
	C817.476379,365.010742 815.336853,365.010742 812.437561,365.110138 
M819.894104,372.820892 
	C819.847595,372.602051 819.801086,372.383240 819.754578,372.164368 
	C819.473999,372.242523 819.193359,372.320648 818.912781,372.398834 
	C819.104736,372.566406 819.296753,372.733978 819.894104,372.820892 
M744.718628,376.844879 
	C744.600952,376.954071 744.483215,377.063263 744.365479,377.172394 
	C744.484253,377.154175 744.602966,377.135956 744.718628,376.844879 
z"/>
<path fill="#B3F8D2" opacity="1.000000" stroke="none" 
	d="
M741.014099,380.013611 
	C742.397705,380.012024 743.781311,380.010406 745.914917,380.021118 
	C747.111450,380.052063 747.558044,380.070648 748.004639,380.089264 
	C748.994751,381.045868 749.984863,382.002472 751.085571,383.400146 
	C746.743530,383.063873 742.578064,381.727600 737.773621,383.757324 
	C733.260498,385.663910 729.705322,382.529541 729.011230,377.453003 
	C728.072815,370.589661 724.140991,367.763824 717.338562,369.024872 
	C713.059509,369.818146 712.137756,373.071686 712.063232,376.616730 
	C711.974670,380.830444 710.292053,383.892853 705.982239,383.872925 
	C702.198669,383.855469 698.091553,383.469818 697.847412,377.734161 
	C697.350647,366.062653 693.959656,354.442200 697.642212,342.724884 
	C699.073853,338.169617 702.651367,337.702026 706.406067,338.073364 
	C709.893738,338.418274 711.984680,340.712860 711.967468,344.319489 
	C711.951050,347.734924 711.883362,350.958282 716.304382,351.692291 
	C720.953003,352.464050 725.651367,349.748993 727.227112,345.339447 
	C729.525757,338.906464 733.365784,337.187286 739.605042,337.817047 
	C744.543884,338.315521 749.646606,336.879852 754.688965,336.735962 
	C762.230042,336.520752 769.782166,336.653046 777.329285,336.702148 
	C781.141357,336.726959 785.036377,337.452087 788.748718,336.894287 
	C801.241211,335.017303 813.440063,336.456818 825.625061,339.114105 
	C827.190552,339.455505 829.015747,339.366882 830.560303,338.921539 
	C842.191528,335.567902 853.994934,336.274963 865.644653,338.069733 
	C871.734131,339.007904 873.667419,343.305359 871.587585,348.903687 
	C870.464111,351.927582 869.455505,354.560425 871.740845,357.381439 
	C872.011108,357.714935 872.060059,358.357635 871.985657,358.820770 
	C870.951233,365.261475 871.186218,371.650330 871.891663,378.142578 
	C872.358582,382.439575 868.448730,384.053101 865.054810,383.895813 
	C853.575195,383.363861 842.032043,385.497253 830.554077,382.446716 
	C827.173157,381.548157 823.065430,383.442535 819.278809,383.971130 
	C818.308289,384.106598 817.292236,383.915405 816.085938,383.492310 
	C817.563965,383.014984 819.450012,383.367676 820.900574,382.729858 
	C823.813904,381.448822 826.489502,379.627197 829.879639,378.041260 
	C830.496094,378.053833 830.980408,378.145538 830.980408,378.145538 
	C831.085083,378.418427 831.254639,378.642120 831.885620,379.148285 
	C832.855469,379.695190 833.428833,379.910461 834.002258,380.125732 
	C835.413940,380.760956 836.816101,381.920319 838.238770,381.945892 
	C847.143921,382.106201 856.059631,382.179993 864.956360,381.855713 
	C866.617493,381.795166 868.785339,380.115265 869.616577,378.584045 
	C870.122009,377.652954 868.514038,375.574707 867.343140,373.615356 
	C865.151367,372.810455 863.481934,372.105774 861.790649,372.048737 
	C856.637939,371.875092 851.461670,372.159454 846.328918,371.789429 
	C844.977295,371.692017 843.749878,369.871948 842.465393,368.842926 
	C843.680481,368.234436 844.864929,367.176880 846.115723,367.091431 
	C853.391968,366.594635 860.683838,366.326202 867.970398,365.980560 
	C871.059692,363.337769 870.736084,360.425720 867.901733,357.166290 
	C860.444275,356.629822 853.734558,356.301575 846.970703,355.614410 
	C846.619080,353.844849 846.321655,352.434235 846.487305,351.022095 
	C851.293823,351.006439 855.637207,350.992279 859.980591,350.978119 
	C862.127380,350.876892 864.614258,351.409424 866.323303,350.492432 
	C867.961731,349.613251 869.806580,347.157806 869.690552,345.528198 
	C869.577393,343.937714 867.148193,341.280426 865.650208,341.220337 
	C856.036865,340.834747 846.394592,340.869202 836.775757,341.187286 
	C834.931763,341.248260 833.149658,343.182343 830.930054,344.763031 
	C830.335449,345.847748 830.149780,346.421692 829.964111,346.995667 
	C829.964111,346.995667 830.004883,346.996277 829.707397,347.091980 
	C827.944336,346.446838 826.478699,345.706024 825.013062,344.965210 
	C825.013062,344.965210 824.993164,344.999298 824.891602,344.776611 
	C824.517334,344.362854 824.244751,344.171753 823.972107,343.980652 
	C822.311401,342.992340 820.661072,341.172211 818.988403,341.151398 
	C808.533508,341.021423 798.073547,341.293304 787.066040,341.881683 
	C785.344543,342.220459 784.172302,342.109619 783.000000,341.998779 
	C781.448608,341.656433 779.903076,341.054382 778.344666,341.018707 
	C772.905518,340.894165 767.453552,341.153259 762.021851,340.915619 
	C754.915833,340.604706 747.982605,340.762390 741.421509,344.626953 
	C741.016052,343.885345 740.997742,343.463562 740.799561,342.704498 
	C734.486450,339.208282 731.089233,341.040466 730.994873,347.565155 
	C730.978271,348.712250 731.003052,349.859924 730.998901,351.403442 
	C730.958435,356.997467 726.861328,356.985291 723.604797,356.844727 
	C718.886353,356.641052 712.985535,359.355255 710.190552,352.739166 
	C709.887024,352.020782 710.079529,351.104034 709.976868,350.287445 
	C709.670654,347.852600 709.332092,345.421844 708.812134,342.660675 
	C702.460815,339.320190 700.008179,340.693573 699.986389,347.248260 
	C699.953918,357.006165 699.839722,366.768311 700.115356,376.518616 
	C700.165344,378.286102 701.591187,381.045929 702.969971,381.480194 
	C704.646301,382.008209 706.945801,380.557770 708.981018,379.530762 
	C710.787781,365.914337 707.878418,366.225159 722.661011,366.097504 
	C724.436279,366.082123 726.216980,366.687286 728.003052,367.369324 
	C729.000977,369.162201 729.990967,370.590546 730.982483,372.349487 
	C730.988525,373.120850 730.993042,373.561646 730.988892,374.429962 
	C731.788147,377.176178 732.047729,380.883301 733.538635,381.471954 
	C735.526917,382.256989 738.472229,380.618195 741.004395,380.013733 
	C741.002380,380.006927 741.014099,380.013611 741.014099,380.013611 
z"/>
<path fill="#B3F8D2" opacity="1.000000" stroke="none" 
	d="
M610.975464,382.835480 
	C608.095093,382.475189 605.215637,382.107117 602.333496,381.761658 
	C601.805176,381.698303 601.209717,381.569153 600.739868,381.736298 
	C589.849915,385.610168 578.734192,384.431763 567.701355,382.900604 
	C562.599304,382.192535 558.751099,376.251312 558.120117,368.868073 
	C557.512817,361.761444 557.740112,354.551788 558.050659,347.406952 
	C558.393188,339.525543 563.012695,336.428162 570.929932,337.863037 
	C573.126465,338.261139 575.505371,337.705872 577.794556,337.515442 
	C578.753967,337.435669 579.705322,336.977295 580.647400,337.014801 
	C587.690796,337.295532 594.728271,337.781830 601.773376,337.931183 
	C604.507690,337.989136 607.262146,337.381775 609.998413,337.010803 
	C620.613464,335.571594 631.163757,334.784668 641.663940,338.086639 
	C644.200134,338.884247 647.552673,339.502045 649.764832,338.505096 
	C660.647522,333.600983 671.986145,336.381439 683.049194,336.265350 
	C689.760925,336.194916 692.784546,346.150970 688.750488,351.966003 
	C687.949402,353.120728 687.854309,355.402344 688.415039,356.758575 
	C691.464661,364.134216 691.909302,371.626617 688.606079,378.790009 
	C686.820618,382.661957 682.496887,384.039703 678.226196,383.965912 
	C667.651245,383.783234 657.080444,383.366669 646.505676,383.155609 
	C644.452759,383.114624 642.389709,383.578857 640.359497,383.200592 
	C641.943481,381.746429 643.499268,380.901764 645.445312,380.054260 
	C649.995850,380.708923 654.136414,381.683044 658.321533,381.944244 
	C663.605347,382.273987 668.925476,382.024963 674.229919,382.021057 
	C687.174194,382.011566 692.797729,372.782959 686.930542,360.745850 
	C686.531555,360.328339 686.269714,360.121490 685.909668,359.719879 
	C685.640381,359.277405 685.413452,359.101501 684.980225,358.777283 
	C684.552429,358.337280 684.275391,358.117432 683.822510,357.678162 
	C683.119873,357.292572 682.593140,357.126404 681.739014,356.698486 
	C675.835022,355.960846 670.244812,355.597351 664.691528,354.927338 
	C663.366516,354.767456 662.164856,353.584778 660.906494,352.872559 
	C661.097412,352.429657 661.288269,351.986786 661.479126,351.543884 
	C669.643555,351.023315 677.807922,350.502747 686.309570,349.799927 
	C689.267212,344.449738 688.441895,341.276886 684.225098,341.024139 
	C676.437378,340.557343 668.635437,340.104523 660.838684,340.091827 
	C655.838135,340.083679 650.795898,340.786285 647.974365,345.955688 
	C647.976807,345.970123 647.961182,345.966614 647.594360,345.973145 
	C646.493286,345.977356 645.759033,345.975067 644.775024,345.940247 
	C644.359802,345.878265 644.194519,345.848785 643.979248,345.473145 
	C641.706177,340.377411 637.251892,340.081207 632.986267,340.063354 
	C622.757019,340.020538 612.193542,338.289215 602.979248,344.581268 
	C600.536804,340.095459 597.368042,339.633179 593.717041,343.210938 
	C593.250122,346.312317 593.056519,349.106354 592.501282,351.980286 
	C590.449341,352.353424 588.758972,352.646606 587.058960,352.508636 
	C587.031006,350.054321 587.012756,348.031189 586.998535,345.599731 
	C587.175354,342.258270 585.817810,341.035583 582.860229,340.940948 
	C577.658691,340.774567 577.042114,341.395264 576.986084,348.426575 
	C576.965454,351.227570 576.948730,353.583771 576.516663,355.956024 
	C574.439636,355.951599 572.777893,355.931122 571.098999,355.456604 
	C571.037170,351.026276 570.992615,347.049988 570.776245,342.731873 
	C565.089294,339.511536 562.352722,340.394928 561.869202,346.216614 
	C561.143921,354.948547 560.908264,363.771240 561.255981,372.523895 
	C561.473389,377.997772 566.575256,381.839172 572.357300,381.958893 
	C579.333252,382.103333 586.315918,382.098785 593.291748,381.961548 
	C595.041138,381.927155 596.755615,381.016174 598.522034,380.728058 
	C600.640564,380.382507 602.797607,380.272675 605.126465,380.358307 
	C607.201843,381.382385 609.088684,382.108948 610.975464,382.835480 
z"/>
<path fill="#97F6C1" opacity="1.000000" stroke="none" 
	d="
M645.055054,380.057129 
	C643.499268,380.901764 641.943481,381.746429 640.161438,382.851807 
	C639.498230,383.075470 639.061340,383.038422 638.157349,382.668945 
	C637.130737,381.551849 636.571167,380.767212 636.285339,379.672913 
	C636.706787,377.723633 636.970520,376.084961 636.983337,374.444275 
	C637.064941,364.012268 637.046692,364.012115 626.432983,364.012207 
	C612.398987,364.012360 612.396912,364.012451 613.079895,378.059631 
	C613.090515,378.278168 613.384766,378.482880 614.005310,379.292236 
	C614.005310,376.567017 614.111877,374.439789 613.983154,372.326935 
	C613.716858,367.956512 615.477539,365.755890 620.061523,365.974487 
	C623.545288,366.140625 627.048889,365.895203 630.532166,366.066986 
	C634.221497,366.248871 636.548279,367.903381 635.564880,372.072693 
	C634.475037,372.411499 633.717834,372.759674 632.960693,373.107819 
	C630.648682,369.229767 626.801575,368.353363 622.983826,369.192780 
	C619.525513,369.953217 616.848450,371.941803 616.814148,376.578156 
	C616.794983,379.158478 616.152466,383.034332 611.360718,382.913208 
	C609.088684,382.108948 607.201843,381.382385 605.143921,380.341705 
	C604.972717,380.027557 605.003357,379.993652 605.281433,379.684692 
	C605.559509,368.673798 605.559509,357.971893 605.559509,347.270020 
	C605.254395,347.352081 604.949280,347.434143 604.644165,347.516235 
	C604.090393,346.683594 603.536621,345.850952 602.997620,345.002991 
	C603.012329,344.987701 603.042114,344.956726 603.042114,344.956726 
	C612.193542,338.289215 622.757019,340.020538 632.986267,340.063354 
	C637.251892,340.081207 641.706177,340.377411 643.967896,345.962250 
	C644.002625,356.123108 643.948364,365.449188 644.040283,374.773834 
	C644.057434,376.514618 644.660889,378.249664 645.008179,380.005432 
	C645.022644,380.023560 645.055054,380.057129 645.055054,380.057129 
M636.604492,349.976379 
	C630.038269,349.651398 623.465698,349.418060 616.908325,348.965515 
	C613.242126,348.712494 612.992310,350.766327 612.917053,353.616516 
	C612.833618,356.772736 613.784485,358.209229 617.159973,358.043579 
	C621.480164,357.831543 625.818665,357.994904 630.149292,357.993347 
	C637.152222,357.990845 637.152222,357.989746 636.604492,349.976379 
z"/>
<path fill="#CDFBE2" opacity="1.000000" stroke="none" 
	d="
M493.134552,376.037659 
	C484.679016,385.710876 476.523041,385.551086 468.217651,375.861725 
	C466.185760,373.491241 463.304291,371.848969 459.998077,369.224731 
	C459.998077,371.773438 459.962158,373.352051 460.004059,374.928619 
	C460.223022,383.166962 458.296783,383.393860 451.157532,383.806885 
	C442.470551,384.309479 433.687988,383.504211 424.966919,382.948822 
	C419.532471,382.602722 415.105347,377.261108 415.017517,371.204163 
	C414.884674,362.047760 414.937012,352.887756 415.003632,343.729980 
	C415.028107,340.364624 418.700531,337.020203 422.079346,337.043732 
	C426.725159,337.076080 428.856049,339.260620 429.022736,343.798950 
	C429.264191,350.374176 429.799072,356.940338 429.951202,363.516357 
	C430.021545,366.555450 431.538910,367.067383 434.070679,367.025726 
	C439.730682,366.932587 445.393616,366.949310 451.054535,367.006592 
	C454.647339,367.042938 455.832336,365.236450 456.057678,361.805115 
	C456.483032,355.327637 456.840179,348.775604 458.165253,342.451447 
	C459.072571,338.121246 463.116516,336.324402 467.382019,337.099884 
	C471.158569,337.786530 472.427307,340.816162 472.004669,344.542023 
	C471.911438,345.364014 471.989807,346.205597 471.991089,347.038177 
	C471.993622,348.703308 471.997467,350.368469 471.741730,352.496826 
	C471.057709,352.946228 470.632751,352.932404 470.167236,352.473572 
	C470.066650,349.022614 470.006561,346.016602 470.050598,342.752350 
	C463.797791,338.995178 460.513336,340.595398 460.060913,347.567780 
	C459.845795,350.883026 460.260925,354.249176 459.922729,357.544281 
	C459.274750,363.857697 461.938782,368.431915 466.710480,372.161713 
	C468.799652,373.794800 470.781555,375.567871 472.777618,377.316772 
	C478.873993,382.658173 484.436676,382.266479 490.289307,376.043396 
	C490.512390,376.012939 490.960052,375.963715 491.322388,375.977844 
	C492.167999,376.007202 492.651276,376.022430 493.134552,376.037659 
M417.023468,351.647552 
	C417.330444,359.111237 417.438110,366.590698 418.026123,374.032166 
	C418.332886,377.914795 420.982330,380.710999 424.874115,380.858276 
	C434.301270,381.215118 443.749390,380.975067 453.185669,381.154785 
	C457.310028,381.233307 458.200714,379.156189 458.125732,375.531097 
	C458.041046,371.439880 455.464386,371.037628 452.425293,371.013489 
	C447.427094,370.973755 442.428558,370.978577 437.430145,370.968842 
	C428.339661,370.951111 427.225403,369.857788 427.112915,360.632080 
	C427.047913,355.301117 427.390350,349.935333 426.846283,344.657745 
	C426.676788,343.013458 424.312805,340.549683 422.757660,340.392029 
	C421.243042,340.238495 418.830505,342.226562 417.991394,343.874695 
	C417.005981,345.810059 417.291748,348.392670 417.023468,351.647552 
z"/>
<path fill="#B3F8D2" opacity="1.000000" stroke="none" 
	d="
M470.207764,352.918579 
	C470.632751,352.932404 471.057709,352.946228 471.801147,352.952637 
	C472.754913,354.847595 473.015686,357.012329 474.118866,358.586914 
	C475.547852,360.626556 477.518799,363.389587 479.499237,363.604584 
	C481.204712,363.789673 484.175720,361.202423 484.960663,359.202545 
	C486.813141,354.482727 487.944946,349.430054 488.903168,344.423004 
	C489.904816,339.189026 492.888763,335.939209 497.745270,337.159302 
	C502.357208,338.317963 506.232727,336.715302 510.492126,336.209595 
	C517.363342,335.393829 524.410461,335.758026 531.364380,336.059937 
	C535.182190,336.225708 539.035950,337.022919 542.718384,338.077301 
	C544.056396,338.460449 545.551453,340.258514 545.924805,341.685730 
	C547.136353,346.317352 546.655945,350.676971 542.064087,353.530396 
	C548.606873,364.141083 548.845154,372.261505 542.445496,380.033264 
	C542.024231,380.024902 541.949524,379.945740 541.999878,379.576233 
	C547.084656,367.858734 545.912781,361.188812 537.568726,356.012756 
	C535.799377,355.967468 534.438721,355.935822 533.056885,355.488586 
	C533.047241,353.409637 533.058899,351.746338 533.492798,350.071503 
	C535.618591,350.044769 537.322083,350.029572 539.432556,350.017151 
	C544.106445,350.267517 544.005737,347.378906 544.048828,344.379517 
	C544.097351,340.996796 542.069458,340.058197 539.285339,340.041199 
	C530.332825,339.986511 521.378174,339.929840 512.428650,340.101013 
	C510.939819,340.129517 509.472748,341.294403 507.654663,341.998230 
	C505.197815,341.799042 503.071381,348.197784 500.793884,341.724457 
	C497.177246,338.937439 494.285095,339.321259 492.031342,343.525879 
	C492.033813,352.496582 493.042816,361.257843 485.975891,367.992004 
	C485.991272,368.006866 485.993134,367.964172 485.693481,367.983887 
	C484.918335,368.330109 484.442841,368.656586 483.987244,368.987671 
	C484.007111,368.992218 483.981750,368.959839 483.641327,369.007751 
	C481.539825,369.023682 479.778717,368.991760 478.005310,368.976440 
	C477.992981,368.993042 478.032928,368.983398 477.854980,368.742523 
	C477.119202,368.322357 476.561401,368.143097 476.004913,367.985657 
	C476.006256,368.007507 476.040131,367.979767 475.995056,367.644531 
	C474.975800,366.478333 474.001678,365.647400 472.900757,364.583740 
	C472.247375,363.891602 471.720764,363.432220 471.073181,362.579803 
	C470.704102,359.097382 470.455933,356.007965 470.207764,352.918579 
z"/>
<path fill="#B3F8D2" opacity="1.000000" stroke="none" 
	d="
M493.465698,375.899353 
	C492.651276,376.022430 492.167999,376.007202 491.445526,375.724152 
	C491.501495,374.973572 491.796661,374.490845 492.338074,373.888611 
	C493.058197,373.228180 493.532104,372.687347 494.222229,371.998871 
	C494.636047,371.569489 494.833679,371.287750 495.013489,371.001434 
	C494.995636,370.996857 495.007080,371.031891 495.232025,370.921204 
	C495.648682,370.542297 495.840393,370.274109 496.012451,370.001617 
	C495.992828,369.997314 496.002991,370.036163 496.307678,370.009644 
	C497.114227,369.659576 497.616058,369.335999 498.363525,368.888611 
	C499.077026,368.214172 499.544830,367.663513 500.275024,366.863708 
	C501.946747,364.610168 502.101807,361.114471 505.991241,362.030151 
	C506.006653,362.019745 505.970825,362.011810 506.076904,362.238159 
	C506.385529,362.747223 506.654266,362.935577 506.986603,363.011536 
	C506.984039,362.993530 506.962372,363.023438 507.029968,363.360229 
	C508.717529,364.478943 510.337555,365.260925 511.972595,366.455872 
	C512.000427,368.252258 512.013245,369.635620 511.635620,371.019958 
	C509.454224,371.675110 507.663208,372.329285 505.503784,373.085022 
	C502.734589,378.646057 503.690125,380.425293 509.022400,381.066711 
	C520.066284,382.395203 531.067505,383.096405 541.949524,379.945740 
	C541.949524,379.945740 542.024231,380.024902 542.061646,380.064453 
	C539.601807,381.333038 537.150452,383.495697 534.598755,383.621460 
	C525.859436,384.052124 517.077393,383.977173 508.327362,383.659485 
	C504.517609,383.521149 501.671814,381.564606 501.878143,376.936951 
	C501.930420,375.765076 501.064056,374.552216 500.228729,372.307068 
	C498.015076,373.495819 495.905975,374.628448 493.465698,375.899353 
z"/>
<path fill="#82F2B3" opacity="1.000000" stroke="none" 
	d="
M751.877686,382.866028 
	C752.750244,382.243927 753.666931,381.101532 754.601624,381.086609 
	C763.232910,380.948486 771.867371,381.005127 780.547668,381.992645 
	C777.468079,381.992645 774.381287,381.866791 771.311707,382.042084 
	C769.599670,382.139862 767.916199,382.738434 766.097900,383.488831 
	C763.163147,383.635956 760.350342,383.405579 756.683228,382.732483 
	C754.527222,382.478943 753.225342,382.668091 751.923523,382.857239 
	C751.923523,382.857239 751.930237,382.868774 751.877686,382.866028 
z"/>
<path fill="#B3F8D2" opacity="1.000000" stroke="none" 
	d="
M632.987610,373.511780 
	C633.717834,372.759674 634.475037,372.411499 635.581543,372.507507 
	C635.957886,375.295349 635.984741,377.638947 636.011597,379.982574 
	C636.571167,380.767212 637.130737,381.551849 637.838257,382.587646 
	C632.438293,382.032227 634.141663,377.185425 632.987610,373.511780 
z"/>
<path fill="#B3F8D2" opacity="1.000000" stroke="none" 
	d="
M810.086304,380.416809 
	C810.164917,379.838562 810.366211,379.557922 811.116943,379.153198 
	C812.108032,379.032684 812.549683,379.036224 812.991333,379.039795 
	C812.991333,379.039764 813.004150,378.996613 812.972900,379.264130 
	C812.948547,379.706207 812.955566,379.880768 812.962646,380.055328 
	C813.276978,380.780853 813.591309,381.506378 813.939087,382.527496 
	C812.718018,382.120209 811.463501,381.417328 810.086304,380.416809 
z"/>
<path fill="#B3F8D2" opacity="1.000000" stroke="none" 
	d="
M751.991699,383.258057 
	C753.225342,382.668091 754.527222,382.478943 756.458374,382.561096 
	C755.411682,383.107910 753.735779,383.383392 751.991699,383.258057 
z"/>
<path fill="#82F2B3" opacity="1.000000" stroke="none" 
	d="
M783.000732,342.442688 
	C784.172302,342.109619 785.344543,342.220459 786.758423,342.163452 
	C787.000000,354.253510 787.000000,366.511353 787.000000,378.769196 
	C786.729492,378.772430 786.458923,378.775665 786.188416,378.778900 
	C786.120422,377.322266 786.233032,375.829712 785.951843,374.415466 
	C784.955139,369.402710 783.970276,364.375641 782.592346,359.462982 
	C782.375061,358.688324 780.155029,358.090973 778.850037,358.069092 
	C771.188171,357.940552 763.521484,357.917999 755.859741,358.051422 
	C752.752686,358.105530 750.838684,357.687592 750.914734,353.807892 
	C750.989075,350.020660 752.555847,348.884644 756.091248,348.963776 
	C763.085388,349.120331 770.105347,348.687714 777.076294,349.119141 
	C782.093384,349.429626 783.734924,347.543365 783.000732,342.442688 
M758.236206,351.141754 
	C757.588196,352.131287 756.940247,353.120850 756.292297,354.110413 
	C757.518799,354.742249 758.731873,355.888184 759.974121,355.920746 
	C766.949402,356.103577 773.934570,355.898102 780.910461,356.068268 
	C785.232239,356.173676 785.524231,354.050262 784.650085,351.023224 
	C775.953735,351.023224 767.527222,351.023224 758.236206,351.141754 
z"/>
<path fill="#82F2B3" opacity="1.000000" stroke="none" 
	d="
M867.661865,365.706726 
	C860.683838,366.326202 853.391968,366.594635 846.115723,367.091431 
	C844.864929,367.176880 843.680481,368.234436 842.465393,368.842926 
	C843.749878,369.871948 844.977295,371.692017 846.328918,371.789429 
	C851.461670,372.159454 856.637939,371.875092 861.790649,372.048737 
	C863.481934,372.105774 865.151367,372.810455 866.955017,373.605469 
	C858.801941,373.991364 850.521912,373.866425 842.248474,374.045746 
	C838.452698,374.127991 836.935181,372.857178 836.913330,368.905762 
	C836.890503,364.781128 839.282959,364.915955 842.091919,364.976929 
	C850.511780,365.159668 858.932800,365.285095 867.661865,365.706726 
z"/>
<path fill="#82F2B3" opacity="1.000000" stroke="none" 
	d="
M783.000000,373.998779 
	C774.002625,373.995911 765.003540,373.892609 756.008606,374.039459 
	C752.397583,374.098358 750.994324,372.821533 750.916199,369.109833 
	C750.832703,365.141235 752.921021,364.912323 755.940308,364.951752 
	C764.215759,365.059784 772.493469,364.989014 780.770325,364.989014 
	C780.780762,365.487762 780.791260,365.986481 780.801697,366.485229 
	C773.752075,366.651276 766.694092,366.674316 759.658569,367.082947 
	C757.875977,367.186432 756.164734,368.518555 754.420715,369.286163 
	C756.196106,370.190521 757.934753,371.776855 759.753601,371.874817 
	C765.900879,372.205902 772.078430,371.931213 778.240295,372.069489 
	C779.760742,372.103638 781.265869,372.824646 782.889038,373.614929 
	C783.000000,374.000000 783.000000,373.998779 783.000000,373.998779 
z"/>
<path fill="#82F2B3" opacity="1.000000" stroke="none" 
	d="
M801.107056,358.007507 
	C797.245483,357.979553 793.310486,358.987610 793.931946,353.130981 
	C794.240967,350.219391 795.307983,348.956390 798.215332,348.995483 
	C803.682556,349.069061 809.154114,349.117065 814.618896,348.979645 
	C818.275024,348.887695 818.960510,350.827759 819.059937,353.973938 
	C819.170166,357.462860 817.521851,358.163452 814.514404,358.049316 
	C810.212280,357.886047 805.899292,358.007477 801.107056,358.007507 
M810.174194,350.987610 
	C807.189148,350.992920 804.182800,350.796448 801.230103,351.108154 
	C800.130737,351.224213 799.156860,352.528870 798.125793,353.291534 
	C799.133240,354.182526 800.081482,355.746948 801.158936,355.841644 
	C804.777893,356.159668 808.469177,356.202423 812.077148,355.822784 
	C813.467590,355.676483 814.709045,354.114227 816.018372,353.197113 
	C815.887756,352.748749 815.757080,352.300385 815.626465,351.852020 
	C814.106873,351.564758 812.587341,351.277527 810.174194,350.987610 
z"/>
<path fill="#82F2B3" opacity="1.000000" stroke="none" 
	d="
M847.024841,355.973328 
	C853.734558,356.301575 860.444275,356.629822 867.574585,356.980591 
	C863.787231,357.336792 859.584473,357.822266 855.370056,357.964600 
	C850.413025,358.132050 845.437195,358.160706 840.489746,357.885071 
	C839.302673,357.818939 837.224487,356.290833 837.242737,355.472534 
	C837.288635,353.404572 838.258789,349.588440 838.920288,349.575287 
	C845.861572,349.437347 852.814941,349.909210 859.872803,350.595276 
	C855.637207,350.992279 851.293823,351.006439 846.063843,351.009338 
	C843.493469,351.752075 841.809814,352.506073 840.126099,353.260071 
	C841.767517,354.176392 843.375549,355.162933 845.069885,355.967712 
	C845.602356,356.220581 846.366638,355.985229 847.024841,355.973328 
z"/>
<path fill="#82F2B3" opacity="1.000000" stroke="none" 
	d="
M740.979370,343.041748 
	C740.997742,343.463562 741.016052,343.885345 741.052734,344.622314 
	C746.372314,353.126038 743.447632,362.266205 743.844055,370.978516 
	C743.966309,373.664673 742.006287,376.445587 741.006897,379.598389 
	C741.014099,380.013611 741.002380,380.006927 740.728394,379.698944 
	C740.308838,368.008453 740.145020,356.626038 740.060059,345.243103 
	C740.054688,344.511627 740.658875,343.775635 740.979370,343.041748 
z"/>
<path fill="#82F2B3" opacity="1.000000" stroke="none" 
	d="
M825.066650,345.381042 
	C826.478699,345.706024 827.944336,346.446838 829.693726,347.076782 
	C829.977539,355.880341 829.977539,364.794800 829.977539,373.709259 
	C829.645447,373.717163 829.313293,373.725067 828.981201,373.732971 
	C828.981201,371.198303 829.356018,368.584564 828.844299,366.157806 
	C828.524048,364.638977 826.869080,363.401581 825.406494,362.018982 
	C825.000000,362.000092 824.985352,361.989410 824.985352,361.989410 
	C825.030273,356.591888 825.075256,351.194366 825.066650,345.381042 
z"/>
<path fill="#82F2B3" opacity="1.000000" stroke="none" 
	d="
M799.300659,365.969177 
	C796.839233,367.131012 795.650391,368.626434 795.951965,371.434875 
	C796.226929,373.995758 796.010193,376.609467 796.010193,379.199860 
	C795.404785,379.215637 794.799377,379.231415 794.193970,379.247162 
	C794.193970,375.025970 794.031372,370.789764 794.417419,366.604156 
	C794.461487,366.126892 797.581360,365.933258 799.300659,365.969177 
z"/>
<path fill="#82F2B3" opacity="1.000000" stroke="none" 
	d="
M812.817444,365.060425 
	C815.336853,365.010742 817.476379,365.010742 819.998352,365.010742 
	C818.154541,366.593781 816.581177,367.944580 814.011108,370.151154 
	C813.454834,368.369171 812.946228,366.739655 812.817444,365.060425 
z"/>
<path fill="#82F2B3" opacity="1.000000" stroke="none" 
	d="
M783.000000,374.000000 
	C783.397888,375.548737 783.795776,377.097473 784.193665,378.646179 
	C783.858765,378.704773 783.523926,378.763367 783.189026,378.821960 
	C783.124390,377.471924 783.059814,376.121887 782.997559,374.385315 
	C783.000000,373.998779 783.000000,374.000000 783.000000,374.000000 
z"/>
<path fill="#82F2B3" opacity="1.000000" stroke="none" 
	d="
M812.870056,378.771851 
	C812.549683,379.036224 812.108032,379.032684 811.335632,379.011414 
	C811.002625,378.550598 811.000427,378.107513 810.999084,377.332214 
	C811.000000,377.000000 811.000000,377.001221 811.000000,377.001221 
	C811.582886,377.502106 812.165833,378.002991 812.870056,378.771851 
z"/>
<path fill="#82F2B3" opacity="1.000000" stroke="none" 
	d="
M819.691406,372.861206 
	C819.296753,372.733978 819.104736,372.566406 818.912781,372.398804 
	C819.193359,372.320648 819.473999,372.242523 819.754578,372.164368 
	C819.801086,372.383240 819.847595,372.602051 819.691406,372.861206 
z"/>
<path fill="#82F2B3" opacity="1.000000" stroke="none" 
	d="
M833.823486,379.861145 
	C833.428833,379.910461 832.855469,379.695190 832.073547,379.247986 
	C832.458313,379.209534 833.051514,379.403046 833.823486,379.861145 
z"/>
<path fill="#82F2B3" opacity="1.000000" stroke="none" 
	d="
M830.211792,346.807678 
	C830.149780,346.421692 830.335449,345.847748 830.751709,345.066040 
	C830.807983,345.445435 830.633789,346.032562 830.211792,346.807678 
z"/>
<path fill="#82F2B3" opacity="1.000000" stroke="none" 
	d="
M747.859741,379.865784 
	C747.558044,380.070648 747.111450,380.052063 746.329956,380.018311 
	C746.568359,379.882874 747.141541,379.762573 747.859741,379.865784 
z"/>
<path fill="#82F2B3" opacity="1.000000" stroke="none" 
	d="
M744.720215,376.981323 
	C744.602966,377.135956 744.484253,377.154175 744.365479,377.172424 
	C744.483215,377.063263 744.600952,376.954071 744.720215,376.981323 
z"/>
<path fill="#82F2B3" opacity="1.000000" stroke="none" 
	d="
M830.972778,377.897156 
	C830.980408,378.145538 830.496094,378.053833 830.251709,378.022522 
	C830.197693,377.603424 830.388123,377.215668 830.578491,376.827911 
	C830.707336,377.101532 830.836243,377.375153 830.972778,377.897156 
z"/>
<path fill="#82F2B3" opacity="1.000000" stroke="none" 
	d="
M824.100830,344.196320 
	C824.244751,344.171753 824.517334,344.362854 824.911316,344.775574 
	C824.764954,344.802155 824.497253,344.607056 824.100830,344.196320 
z"/>
<path fill="#82F2B3" opacity="1.000000" stroke="none" 
	d="
M813.114502,379.948608 
	C812.955566,379.880768 812.948547,379.706207 812.951050,379.269714 
	C813.121521,379.178986 813.300964,379.337830 813.430115,379.530426 
	C813.461182,379.576782 813.325439,379.735077 813.114502,379.948608 
z"/>
<path fill="#82F2B3" opacity="1.000000" stroke="none" 
	d="
M825.005493,362.007385 
	C824.889404,362.323181 824.696533,362.577728 824.216187,362.889099 
	C824.000000,363.000000 823.990234,362.992920 823.990234,362.992920 
	C824.110168,362.683960 824.301575,362.428619 824.774963,362.108154 
	C824.985352,361.989410 825.000000,362.000092 825.005493,362.007385 
z"/>
<path fill="#82F2B3" opacity="1.000000" stroke="none" 
	d="
M824.003662,363.004883 
	C824.007385,363.009766 823.745850,363.426636 823.745850,363.426636 
	C823.745850,363.426636 823.754028,363.098267 823.872131,363.045593 
	C823.990234,362.992920 824.000000,363.000000 824.003662,363.004883 
z"/>
<path fill="#82F2B3" opacity="1.000000" stroke="none" 
	d="
M811.000000,376.999847 
	C810.688965,376.881836 810.433044,376.690369 810.116089,376.212646 
	C810.308411,376.122009 810.563171,376.314819 810.882141,376.789856 
	C811.000000,377.001221 811.000000,377.000000 811.000000,376.999847 
z"/>
<path fill="#82F2B3" opacity="1.000000" stroke="none" 
	d="
M803.993286,370.008606 
	C803.886841,369.882751 803.780457,369.756897 803.674072,369.631012 
	C803.750244,369.672485 803.826355,369.713959 803.951233,369.877716 
	C804.000000,370.000000 803.993286,370.008575 803.993286,370.008606 
z"/>
<path fill="#82F2B3" opacity="1.000000" stroke="none" 
	d="
M809.001404,374.998413 
	C809.309631,375.120453 809.564148,375.313354 809.882446,375.788574 
	C809.688293,375.882904 809.431702,375.691864 809.115112,375.213409 
	C809.000000,375.000000 809.001404,374.998413 809.001404,374.998413 
z"/>
<path fill="#82F2B3" opacity="1.000000" stroke="none" 
	d="
M808.002441,373.996338 
	C808.310730,374.118500 808.565369,374.311523 808.883789,374.786896 
	C809.001404,374.998413 809.000000,375.000000 808.998779,375.000610 
	C808.686218,374.884277 808.429993,374.693298 808.114441,374.214172 
	C808.000000,374.000000 808.002441,373.996338 808.002441,373.996338 
z"/>
<path fill="#82F2B3" opacity="1.000000" stroke="none" 
	d="
M807.003662,372.995117 
	C807.311829,373.117218 807.566223,373.310150 807.884644,373.785126 
	C808.002441,373.996338 808.000000,374.000000 807.998779,374.001312 
	C807.685608,373.885925 807.428772,373.695099 807.113525,373.215027 
	C807.000000,373.000000 807.003662,372.995117 807.003662,372.995117 
z"/>
<path fill="#82F2B3" opacity="1.000000" stroke="none" 
	d="
M806.004883,371.993896 
	C806.312927,372.116150 806.567322,372.309174 806.885803,372.783997 
	C807.003662,372.995117 807.000000,373.000000 806.997559,373.002014 
	C806.683289,372.887054 806.426514,372.696045 806.112427,372.215515 
	C806.000000,372.000000 806.004883,371.993896 806.004883,371.993896 
z"/>
<path fill="#82F2B3" opacity="1.000000" stroke="none" 
	d="
M805.005676,370.992401 
	C805.313599,371.114960 805.567871,371.308167 805.886719,371.782928 
	C806.004883,371.993896 806.000000,372.000000 805.996338,372.002502 
	C805.681458,371.887756 805.425110,371.696777 805.111877,371.216034 
	C805.000000,371.000000 805.005676,370.992401 805.005676,370.992401 
z"/>
<path fill="#82F2B3" opacity="1.000000" stroke="none" 
	d="
M804.004517,369.996826 
	C804.315063,370.117310 804.568420,370.310181 804.887390,370.782349 
	C805.005676,370.992401 805.000000,371.000000 804.996338,371.003052 
	C804.681885,370.888702 804.426086,370.697693 804.109253,370.220825 
	C803.993286,370.008575 804.000000,370.000000 804.004517,369.996826 
z"/>
<path fill="#97F6C1" opacity="1.000000" stroke="none" 
	d="
M740.799561,342.704498 
	C740.658875,343.775635 740.054688,344.511627 740.060059,345.243103 
	C740.145020,356.626038 740.308838,368.008453 740.730469,379.705750 
	C738.472229,380.618195 735.526917,382.256989 733.538635,381.471954 
	C732.047729,380.883301 731.788147,377.176178 731.367920,374.321228 
	C734.196350,368.609283 733.460876,365.160980 729.737061,365.051697 
	C723.590088,364.871277 717.430176,364.894867 711.285156,365.106567 
	C710.192688,365.144196 708.232483,366.508545 708.229675,367.266083 
	C708.213806,371.497467 708.676514,375.730652 708.975708,379.963196 
	C706.945801,380.557770 704.646301,382.008209 702.969971,381.480194 
	C701.591187,381.045929 700.165344,378.286102 700.115356,376.518616 
	C699.839722,366.768311 699.953918,357.006165 699.986389,347.248260 
	C700.008179,340.693573 702.460815,339.320190 708.538086,342.973633 
	C708.309937,347.250671 707.847656,350.915436 708.184021,354.505341 
	C708.302063,355.764343 710.325073,357.763184 711.576233,357.840637 
	C717.375488,358.199768 723.211731,358.094116 729.028503,357.932587 
	C730.302429,357.897247 732.657837,356.853973 732.621216,356.444153 
	C732.456299,354.598572 731.609619,352.813934 731.008728,351.007324 
	C731.003052,349.859924 730.978271,348.712250 730.994873,347.565155 
	C731.089233,341.040466 734.486450,339.208282 740.799561,342.704498 
z"/>
<path fill="#82F2B3" opacity="1.000000" stroke="none" 
	d="
M730.998901,351.403442 
	C731.609619,352.813934 732.456299,354.598572 732.621216,356.444153 
	C732.657837,356.853973 730.302429,357.897247 729.028503,357.932587 
	C723.211731,358.094116 717.375488,358.199768 711.576233,357.840637 
	C710.325073,357.763184 708.302063,355.764343 708.184021,354.505341 
	C707.847656,350.915436 708.309937,347.250671 708.732056,343.302429 
	C709.332092,345.421844 709.670654,347.852600 709.976868,350.287445 
	C710.079529,351.104034 709.887024,352.020782 710.190552,352.739166 
	C712.985535,359.355255 718.886353,356.641052 723.604797,356.844727 
	C726.861328,356.985291 730.958435,356.997467 730.998901,351.403442 
z"/>
<path fill="#82F2B3" opacity="1.000000" stroke="none" 
	d="
M708.981018,379.530792 
	C708.676514,375.730652 708.213806,371.497467 708.229675,367.266083 
	C708.232483,366.508545 710.192688,365.144196 711.285156,365.106567 
	C717.430176,364.894867 723.590088,364.871277 729.737061,365.051697 
	C733.460876,365.160980 734.196350,368.609283 731.376587,373.893707 
	C730.993042,373.561646 730.988525,373.120850 730.993408,371.944641 
	C731.033813,369.068420 731.255981,366.790802 727.995117,367.004822 
	C726.216980,366.687286 724.436279,366.082123 722.661011,366.097504 
	C707.878418,366.225159 710.787781,365.914337 708.981018,379.530792 
z"/>
<path fill="#97F6C1" opacity="1.000000" stroke="none" 
	d="
M846.970703,355.614410 
	C846.366638,355.985229 845.602356,356.220581 845.069885,355.967712 
	C843.375549,355.162933 841.767517,354.176392 840.126099,353.260071 
	C841.809814,352.506073 843.493469,351.752075 845.600708,351.010834 
	C846.321655,352.434235 846.619080,353.844849 846.970703,355.614410 
z"/>
<path fill="#97F6C1" opacity="1.000000" stroke="none" 
	d="
M728.003052,367.369324 
	C731.255981,366.790802 731.033813,369.068420 730.991943,371.614075 
	C729.990967,370.590546 729.000977,369.162201 728.003052,367.369324 
z"/>
<path fill="#97F6C1" opacity="1.000000" stroke="none" 
	d="
M687.067566,360.956543 
	C692.797729,372.782959 687.174194,382.011566 674.229919,382.021057 
	C668.925476,382.024963 663.605347,382.273987 658.321533,381.944244 
	C654.136414,381.683044 649.995850,380.708923 645.445312,380.054260 
	C645.055054,380.057129 645.022644,380.023560 645.073059,379.593872 
	C645.411316,375.085663 645.474548,370.973480 646.077087,366.942017 
	C646.403320,364.759705 647.649841,362.714935 648.481201,360.608124 
	C648.876831,360.703247 649.272461,360.798370 649.668030,360.893494 
	C649.102661,355.909393 648.537292,350.925323 647.971924,345.941223 
	C650.795898,340.786285 655.838135,340.083679 660.838684,340.091827 
	C668.635437,340.104523 676.437378,340.557343 684.225098,341.024139 
	C688.441895,341.276886 689.267212,344.449738 685.999268,349.528687 
	C676.582825,349.298157 667.812256,349.041138 659.047302,349.168915 
	C658.012939,349.183990 656.209595,351.288116 656.177612,352.462372 
	C656.128723,354.257355 657.301025,357.656036 657.974426,357.660858 
	C666.002930,357.718536 674.035156,357.273560 682.066345,356.960266 
	C682.593140,357.126404 683.119873,357.292572 683.947754,357.920746 
	C684.542908,358.587677 684.836914,358.792542 685.130920,358.997406 
	C685.413452,359.101501 685.640381,359.277405 685.917114,359.952026 
	C686.370972,360.571472 686.719299,360.764008 687.067566,360.956543 
M651.899109,363.768066 
	C651.899109,363.768066 651.586121,363.753723 651.586121,363.753723 
	C651.586121,363.753723 652.002441,363.998322 652.416504,364.670135 
	C654.110413,365.113617 655.793030,365.879669 657.500427,365.939667 
	C662.478027,366.114532 667.488647,365.732941 672.437317,366.150635 
	C674.316650,366.309235 676.062195,368.052307 677.868774,369.073212 
	C676.099426,370.046600 674.362854,371.782318 672.554993,371.860077 
	C665.135376,372.179138 657.693970,371.993378 650.260620,371.993378 
	C658.814575,373.008667 667.377869,372.846497 675.930298,373.080292 
	C679.924500,373.189484 679.978516,371.042297 680.089905,368.081116 
	C680.220825,364.600372 678.596130,363.914124 675.562683,363.966156 
	C667.709778,364.100952 659.852844,364.005798 651.899109,363.768066 
z"/>
<path fill="#97F6C1" opacity="1.000000" stroke="none" 
	d="
M576.989990,347.981781 
	C577.042114,341.395264 577.658691,340.774567 582.860229,340.940948 
	C585.817810,341.035583 587.175354,342.258270 586.722656,345.910004 
	C586.289673,354.046844 586.202087,361.467285 585.950562,368.882172 
	C585.853455,371.745819 586.692139,373.061768 589.838684,373.097443 
	C593.154907,373.135010 594.122559,371.856689 594.064697,368.701294 
	C593.907104,360.104492 593.997986,351.503143 593.990356,342.903595 
	C597.368042,339.633179 600.536804,340.095459 602.979248,344.581268 
	C603.042114,344.956726 603.012329,344.987701 602.612549,345.107605 
	C601.883728,345.576233 601.271973,345.921112 601.267090,346.274353 
	C601.141846,355.332367 601.057312,364.391235 601.058228,373.449982 
	C601.058289,374.055939 601.804993,374.652710 602.178162,375.269623 
	C603.127808,376.839508 604.062622,378.418396 605.003357,379.993652 
	C605.003357,379.993652 604.972717,380.027557 604.955322,380.044159 
	C602.797607,380.272675 600.640564,380.382507 598.522034,380.728058 
	C596.755615,381.016174 595.041138,381.927155 593.291748,381.961548 
	C586.315918,382.098785 579.333252,382.103333 572.357300,381.958893 
	C566.575256,381.839172 561.473389,377.997772 561.255981,372.523895 
	C560.908264,363.771240 561.143921,354.948547 561.869202,346.216614 
	C562.352722,340.394928 565.089294,339.511536 570.507507,343.036407 
	C570.275391,352.444885 570.042358,361.208069 570.137329,369.967712 
	C570.148315,370.986237 571.960449,372.791748 572.963989,372.810364 
	C574.607117,372.840851 577.706604,371.708466 577.708923,371.057617 
	C577.736572,363.366638 577.302551,355.673981 576.989990,347.981781 
z"/>
<path fill="#82F2B3" opacity="1.000000" stroke="none" 
	d="
M681.739014,356.698486 
	C674.035156,357.273560 666.002930,357.718536 657.974426,357.660858 
	C657.301025,357.656036 656.128723,354.257355 656.177612,352.462372 
	C656.209595,351.288116 658.012939,349.183990 659.047302,349.168915 
	C667.812256,349.041138 676.582825,349.298157 685.662048,349.710938 
	C677.807922,350.502747 669.643555,351.023315 661.479126,351.543884 
	C661.288269,351.986786 661.097412,352.429657 660.906494,352.872559 
	C662.164856,353.584778 663.366516,354.767456 664.691528,354.927338 
	C670.244812,355.597351 675.835022,355.960846 681.739014,356.698486 
z"/>
<path fill="#82F2B3" opacity="1.000000" stroke="none" 
	d="
M647.974365,345.955688 
	C648.537292,350.925323 649.102661,355.909393 649.668030,360.893494 
	C649.272461,360.798370 648.876831,360.703247 648.481201,360.608124 
	C647.649841,362.714935 646.403320,364.759705 646.077087,366.942017 
	C645.474548,370.973480 645.411316,375.085663 645.058594,379.575775 
	C644.660889,378.249664 644.057434,376.514618 644.040283,374.773834 
	C643.948364,365.449188 644.002625,356.123108 644.017822,346.308411 
	C644.194519,345.848785 644.359802,345.878265 644.827515,346.267365 
	C646.073669,346.406860 647.017456,346.186737 647.961182,345.966614 
	C647.961182,345.966614 647.976807,345.970123 647.974365,345.955688 
z"/>
<path fill="#97F6C1" opacity="1.000000" stroke="none" 
	d="
M587.068726,352.939789 
	C588.758972,352.646606 590.449341,352.353424 592.544067,352.456665 
	C592.867554,357.661804 593.012573,362.492065 592.557983,367.265259 
	C592.433228,368.574982 590.514038,369.713776 589.418274,370.931030 
	C588.615906,369.584442 587.204773,368.273895 587.122437,366.884644 
	C586.847778,362.251587 587.049561,357.590271 587.068726,352.939789 
z"/>
<path fill="#97F6C1" opacity="1.000000" stroke="none" 
	d="
M571.116211,355.910614 
	C572.777893,355.931122 574.439636,355.951599 576.541626,356.426819 
	C576.974060,360.496185 577.159424,364.127777 576.843750,367.715302 
	C576.745728,368.829590 575.288940,369.824280 574.454224,370.873749 
	C573.495056,369.968475 571.816162,369.144623 571.703003,368.143677 
	C571.245239,364.095612 571.269714,359.993073 571.116211,355.910614 
z"/>
<path fill="#82F2B3" opacity="1.000000" stroke="none" 
	d="
M587.058960,352.508636 
	C587.049561,357.590271 586.847778,362.251587 587.122437,366.884644 
	C587.204773,368.273895 588.615906,369.584442 589.418274,370.931030 
	C590.514038,369.713776 592.433228,368.574982 592.557983,367.265259 
	C593.012573,362.492065 592.867554,357.661804 592.905762,352.376709 
	C593.056519,349.106354 593.250122,346.312317 593.717041,343.210938 
	C593.997986,351.503143 593.907104,360.104492 594.064697,368.701294 
	C594.122559,371.856689 593.154907,373.135010 589.838684,373.097443 
	C586.692139,373.061768 585.853455,371.745819 585.950562,368.882172 
	C586.202087,361.467285 586.289673,354.046844 586.718567,346.318298 
	C587.012756,348.031189 587.031006,350.054321 587.058960,352.508636 
z"/>
<path fill="#82F2B3" opacity="1.000000" stroke="none" 
	d="
M571.098938,355.456604 
	C571.269714,359.993073 571.245239,364.095612 571.703003,368.143677 
	C571.816162,369.144623 573.495056,369.968475 574.454224,370.873749 
	C575.288940,369.824280 576.745728,368.829590 576.843750,367.715302 
	C577.159424,364.127777 576.974060,360.496185 576.956909,356.410767 
	C576.948730,353.583771 576.965454,351.227570 576.986084,348.426575 
	C577.302551,355.673981 577.736572,363.366638 577.708923,371.057617 
	C577.706604,371.708466 574.607117,372.840851 572.963989,372.810364 
	C571.960449,372.791748 570.148315,370.986237 570.137329,369.967712 
	C570.042358,361.208069 570.275391,352.444885 570.679321,343.378235 
	C570.992615,347.049988 571.037170,351.026276 571.098938,355.456604 
z"/>
<path fill="#97F6C1" opacity="1.000000" stroke="none" 
	d="
M647.594360,345.973145 
	C647.017456,346.186737 646.073669,346.406860 645.077393,346.299866 
	C645.759033,345.975067 646.493286,345.977356 647.594360,345.973145 
z"/>
<path fill="#82F2B3" opacity="1.000000" stroke="none" 
	d="
M686.930542,360.745850 
	C686.719299,360.764008 686.370972,360.571472 686.015259,360.146790 
	C686.269714,360.121490 686.531555,360.328339 686.930542,360.745850 
z"/>
<path fill="#82F2B3" opacity="1.000000" stroke="none" 
	d="
M684.980225,358.777283 
	C684.836914,358.792542 684.542908,358.587677 684.123596,358.140198 
	C684.275391,358.117432 684.552429,358.337280 684.980225,358.777283 
z"/>
<path fill="#82F2B3" opacity="1.000000" stroke="none" 
	d="
M605.281433,379.684692 
	C604.062622,378.418396 603.127808,376.839508 602.178162,375.269623 
	C601.804993,374.652710 601.058289,374.055939 601.058228,373.449982 
	C601.057312,364.391235 601.141846,355.332367 601.267090,346.274353 
	C601.271973,345.921112 601.883728,345.576233 602.597778,345.122894 
	C603.536621,345.850952 604.090393,346.683594 604.644165,347.516235 
	C604.949280,347.434143 605.254395,347.352081 605.559509,347.270020 
	C605.559509,357.971893 605.559509,368.673798 605.281433,379.684692 
z"/>
<path fill="#82F2B3" opacity="1.000000" stroke="none" 
	d="
M636.752563,350.397766 
	C637.152222,357.989746 637.152222,357.990845 630.149292,357.993347 
	C625.818665,357.994904 621.480164,357.831543 617.159973,358.043579 
	C613.784485,358.209229 612.833618,356.772736 612.917053,353.616516 
	C612.992310,350.766327 613.242126,348.712494 616.908325,348.965515 
	C623.465698,349.418060 630.038269,349.651398 636.752563,350.397766 
M621.782227,356.000000 
	C633.305542,356.006470 633.305542,356.006470 634.663391,351.512634 
	C628.157349,351.512634 621.788452,351.512634 615.215088,351.512634 
	C615.554626,355.698792 618.092773,356.020996 621.782227,356.000000 
z"/>
<path fill="#82F2B3" opacity="1.000000" stroke="none" 
	d="
M636.285339,379.672913 
	C635.984741,377.638947 635.957886,375.295349 635.914307,372.516876 
	C636.548279,367.903381 634.221497,366.248871 630.532166,366.066986 
	C627.048889,365.895203 623.545288,366.140625 620.061523,365.974487 
	C615.477539,365.755890 613.716858,367.956512 613.983154,372.326935 
	C614.111877,374.439789 614.005310,376.567017 614.005310,379.292236 
	C613.384766,378.482880 613.090515,378.278168 613.079895,378.059631 
	C612.396912,364.012451 612.398987,364.012360 626.432983,364.012207 
	C637.046692,364.012115 637.064941,364.012268 636.983337,374.444275 
	C636.970520,376.084961 636.706787,377.723633 636.285339,379.672913 
z"/>
<path fill="#97F6C1" opacity="1.000000" stroke="none" 
	d="
M494.006042,372.146484 
	C493.532104,372.687347 493.058197,373.228180 492.044006,373.907440 
	C491.024536,374.721832 490.545380,375.397827 490.066223,376.073822 
	C484.436676,382.266479 478.873993,382.658173 472.777618,377.316772 
	C470.781555,375.567871 468.799652,373.794800 466.710480,372.161713 
	C461.938782,368.431915 459.274750,363.857697 459.922729,357.544281 
	C460.260925,354.249176 459.845795,350.883026 460.060913,347.567780 
	C460.513336,340.595398 463.797791,338.995178 469.789185,343.070892 
	C469.287415,349.196503 469.051208,354.746490 469.115601,360.292969 
	C469.126068,361.194183 470.467773,362.079956 471.194122,362.972839 
	C471.720764,363.432220 472.247375,363.891602 472.925812,364.943146 
	C474.065155,366.350128 475.052643,367.164948 476.040131,367.979767 
	C476.040131,367.979767 476.006256,368.007507 476.182098,368.227905 
	C476.916290,368.626648 477.474609,368.805023 478.032928,368.983398 
	C478.032928,368.983398 477.992981,368.993042 478.038330,369.320618 
	C479.170990,370.641083 480.258331,371.634003 481.345642,372.626923 
	C482.224365,371.404572 483.103058,370.182190 483.981750,368.959839 
	C483.981750,368.959839 484.007111,368.992218 484.287628,368.966980 
	C485.043121,368.615875 485.518127,368.290009 485.993103,367.964172 
	C485.993134,367.964172 485.991272,368.006866 486.326752,367.955994 
	C487.246277,367.606659 487.919983,367.411591 488.401001,366.994354 
	C496.393372,360.061035 492.645050,351.322021 492.047516,343.066498 
	C494.285095,339.321259 497.177246,338.937439 500.522186,342.030426 
	C500.285126,350.813782 500.148895,358.963348 500.012665,367.112885 
	C499.544830,367.663513 499.077026,368.214172 498.050781,368.910034 
	C496.995941,369.382263 496.499451,369.709198 496.002991,370.036133 
	C496.002991,370.036163 495.992828,369.997314 495.792999,370.119263 
	C495.319183,370.446472 495.123810,370.710052 495.007080,371.031891 
	C495.007080,371.031891 494.995636,370.996857 494.784424,371.132477 
	C494.384155,371.560913 494.195099,371.853699 494.006042,372.146484 
z"/>
<path fill="#97F6C1" opacity="1.000000" stroke="none" 
	d="
M417.024841,351.171082 
	C417.291748,348.392670 417.005981,345.810059 417.991394,343.874695 
	C418.830505,342.226562 421.243042,340.238495 422.757660,340.392029 
	C424.312805,340.549683 426.676788,343.013458 426.846283,344.657745 
	C427.390350,349.935333 427.047913,355.301117 427.112915,360.632080 
	C427.225403,369.857788 428.339661,370.951111 437.430145,370.968842 
	C442.428558,370.978577 447.427094,370.973755 452.425293,371.013489 
	C455.464386,371.037628 458.041046,371.439880 458.125732,375.531097 
	C458.200714,379.156189 457.310028,381.233307 453.185669,381.154785 
	C443.749390,380.975067 434.301270,381.215118 424.874115,380.858276 
	C420.982330,380.710999 418.332886,377.914795 418.026123,374.032166 
	C417.438110,366.590698 417.330444,359.111237 417.024841,351.171082 
z"/>
<path fill="#82F2B3" opacity="1.000000" stroke="none" 
	d="
M471.073181,362.579834 
	C470.467773,362.079956 469.126068,361.194183 469.115601,360.292969 
	C469.051208,354.746490 469.287415,349.196503 469.685059,343.329163 
	C470.006561,346.016602 470.066650,349.022614 470.167267,352.473572 
	C470.455933,356.007965 470.704102,359.097382 471.073181,362.579834 
z"/>
<path fill="#82F2B3" opacity="1.000000" stroke="none" 
	d="
M490.289307,376.043396 
	C490.545380,375.397827 491.024536,374.721832 491.797791,374.026978 
	C491.796661,374.490845 491.501495,374.973572 491.083191,375.710022 
	C490.960052,375.963715 490.512390,376.012939 490.289307,376.043396 
z"/>
<path fill="#97F6C1" opacity="1.000000" stroke="none" 
	d="
M541.999878,379.576233 
	C531.067505,383.096405 520.066284,382.395203 509.022400,381.066711 
	C503.690125,380.425293 502.734589,378.646057 505.986877,373.090302 
	C514.809631,372.998535 522.781616,372.942535 530.751770,373.038208 
	C533.836182,373.075195 536.093872,373.069244 536.159424,368.754852 
	C536.225403,364.414124 534.285583,363.967224 530.750000,363.926605 
	C522.818420,363.835449 514.891296,363.348969 506.962372,363.023438 
	C506.962372,363.023438 506.984039,362.993530 506.871704,362.792206 
	C506.555450,362.317627 506.292603,362.124603 505.970825,362.011810 
	C505.970825,362.011810 506.006653,362.019745 505.941650,361.612610 
	C504.327667,354.533722 504.014313,347.997833 507.995636,341.934143 
	C509.472748,341.294403 510.939819,340.129517 512.428650,340.101013 
	C521.378174,339.929840 530.332825,339.986511 539.285339,340.041199 
	C542.069458,340.058197 544.097351,340.996796 544.048828,344.379517 
	C544.005737,347.378906 544.106445,350.267517 539.118652,349.738525 
	C530.931519,349.300171 523.459839,349.263123 516.001099,348.934113 
	C512.436096,348.776855 511.931793,350.547180 511.914978,353.504791 
	C511.897858,356.523285 512.546875,358.168549 516.047852,358.045898 
	C522.033508,357.836182 528.035767,358.105469 534.021729,357.900726 
	C535.360107,357.854950 536.659912,356.680969 537.977478,356.026398 
	C545.912781,361.188812 547.084656,367.858734 541.999878,379.576233 
z"/>
<path fill="#82F2B3" opacity="1.000000" stroke="none" 
	d="
M507.654663,341.998230 
	C504.014313,347.997833 504.327667,354.533722 505.926239,361.623016 
	C502.101807,361.114471 501.946747,364.610168 500.275024,366.863708 
	C500.148895,358.963348 500.285126,350.813782 500.693054,342.358276 
	C503.071381,348.197784 505.197815,341.799042 507.654663,341.998230 
z"/>
<path fill="#97F6C1" opacity="1.000000" stroke="none" 
	d="
M533.070496,350.083008 
	C533.058899,351.746338 533.047241,353.409637 532.585083,355.520447 
	C526.004578,355.646301 519.470337,357.187073 514.119873,353.274139 
	C514.180725,352.407104 514.241577,351.540070 514.302368,350.673035 
	C520.558411,350.476379 526.814453,350.279694 533.070496,350.083008 
z"/>
<path fill="#82F2B3" opacity="1.000000" stroke="none" 
	d="
M533.492798,350.071503 
	C526.814453,350.279694 520.558411,350.476379 514.302368,350.673035 
	C514.241577,351.540070 514.180725,352.407104 514.119873,353.274139 
	C519.470337,357.187073 526.004578,355.646301 532.606323,355.936066 
	C534.438721,355.935822 535.799377,355.967468 537.568726,356.012756 
	C536.659912,356.680969 535.360107,357.854950 534.021729,357.900726 
	C528.035767,358.105469 522.033508,357.836182 516.047852,358.045898 
	C512.546875,358.168549 511.897858,356.523285 511.914978,353.504791 
	C511.931793,350.547180 512.436096,348.776855 516.001099,348.934113 
	C523.459839,349.263123 530.931519,349.300171 538.711792,349.735718 
	C537.322083,350.029572 535.618591,350.044769 533.492798,350.071503 
z"/>
<path fill="#82F2B3" opacity="1.000000" stroke="none" 
	d="
M492.031342,343.525879 
	C492.645050,351.322021 496.393372,360.061035 488.401001,366.994354 
	C487.919983,367.411591 487.246277,367.606659 486.311371,367.941101 
	C493.042816,361.257843 492.033813,352.496582 492.031342,343.525879 
z"/>
<path fill="#82F2B3" opacity="1.000000" stroke="none" 
	d="
M483.641327,369.007751 
	C483.103058,370.182190 482.224365,371.404572 481.345642,372.626923 
	C480.258331,371.634003 479.170990,370.641083 478.050659,369.304016 
	C479.778717,368.991760 481.539825,369.023682 483.641327,369.007751 
z"/>
<path fill="#82F2B3" opacity="1.000000" stroke="none" 
	d="
M475.995056,367.644531 
	C475.052643,367.164948 474.065155,366.350128 473.052582,365.175903 
	C474.001678,365.647400 474.975800,366.478333 475.995056,367.644531 
z"/>
<path fill="#82F2B3" opacity="1.000000" stroke="none" 
	d="
M485.693481,367.983887 
	C485.518127,368.290009 485.043121,368.615875 484.267761,368.962433 
	C484.442841,368.656586 484.918335,368.330109 485.693481,367.983887 
z"/>
<path fill="#82F2B3" opacity="1.000000" stroke="none" 
	d="
M477.854980,368.742493 
	C477.474609,368.805023 476.916290,368.626648 476.180756,368.206055 
	C476.561401,368.143097 477.119202,368.322357 477.854980,368.742493 
z"/>
<path fill="#82F2B3" opacity="1.000000" stroke="none" 
	d="
M507.029968,363.360199 
	C514.891296,363.348969 522.818420,363.835449 530.750000,363.926605 
	C534.285583,363.967224 536.225403,364.414124 536.159424,368.754852 
	C536.093872,373.069244 533.836182,373.075195 530.751770,373.038208 
	C522.781616,372.942535 514.809631,372.998535 506.355286,372.988708 
	C507.663208,372.329285 509.454224,371.675110 512.101257,371.023315 
	C518.254333,371.023560 523.560425,371.193695 528.842957,370.915588 
	C530.454407,370.830750 532.000977,369.512665 533.577271,368.759399 
	C531.998535,367.840637 530.459351,366.221832 528.833984,366.130066 
	C523.224731,365.813507 517.585388,366.029602 511.957550,366.042847 
	C510.337555,365.260925 508.717529,364.478943 507.029968,363.360199 
z"/>
<path fill="#97F6C1" opacity="1.000000" stroke="none" 
	d="
M511.972595,366.455872 
	C517.585388,366.029602 523.224731,365.813507 528.833984,366.130066 
	C530.459351,366.221832 531.998535,367.840637 533.577271,368.759399 
	C532.000977,369.512665 530.454407,370.830750 528.842957,370.915588 
	C523.560425,371.193695 518.254333,371.023560 512.491638,371.022339 
	C512.013245,369.635620 512.000427,368.252258 511.972595,366.455872 
z"/>
<path fill="#82F2B3" opacity="1.000000" stroke="none" 
	d="
M496.307678,370.009644 
	C496.499451,369.709198 496.995941,369.382263 497.805145,369.033875 
	C497.616058,369.335999 497.114227,369.659576 496.307678,370.009644 
z"/>
<path fill="#82F2B3" opacity="1.000000" stroke="none" 
	d="
M506.076904,362.238159 
	C506.292603,362.124603 506.555450,362.317627 506.874268,362.810211 
	C506.654266,362.935577 506.385529,362.747223 506.076904,362.238159 
z"/>
<path fill="#82F2B3" opacity="1.000000" stroke="none" 
	d="
M494.222229,371.998840 
	C494.195099,371.853699 494.384155,371.560913 494.802277,371.137054 
	C494.833679,371.287750 494.636047,371.569489 494.222229,371.998840 
z"/>
<path fill="#82F2B3" opacity="1.000000" stroke="none" 
	d="
M495.232025,370.921204 
	C495.123810,370.710052 495.319183,370.446472 495.812622,370.123566 
	C495.840393,370.274109 495.648682,370.542297 495.232025,370.921204 
z"/>
<path fill="#97F6C1" opacity="1.000000" stroke="none" 
	d="
M758.668457,351.082489 
	C767.527222,351.023224 775.953735,351.023224 784.650085,351.023224 
	C785.524231,354.050262 785.232239,356.173676 780.910461,356.068268 
	C773.934570,355.898102 766.949402,356.103577 759.974121,355.920746 
	C758.731873,355.888184 757.518799,354.742249 756.292297,354.110413 
	C756.940247,353.120850 757.588196,352.131287 758.668457,351.082489 
z"/>
<path fill="#97F6C1" opacity="1.000000" stroke="none" 
	d="
M810.620972,350.988953 
	C812.587341,351.277527 814.106873,351.564758 815.626465,351.852020 
	C815.757080,352.300385 815.887756,352.748749 816.018372,353.197113 
	C814.709045,354.114227 813.467590,355.676483 812.077148,355.822784 
	C808.469177,356.202423 804.777893,356.159668 801.158936,355.841644 
	C800.081482,355.746948 799.133240,354.182526 798.125793,353.291504 
	C799.156860,352.528870 800.130737,351.224213 801.230103,351.108154 
	C804.182800,350.796448 807.189148,350.992920 810.620972,350.988953 
z"/>
<path fill="#82F2B3" opacity="1.000000" stroke="none" 
	d="
M651.997559,364.002441 
	C659.852844,364.005798 667.709778,364.100952 675.562683,363.966156 
	C678.596130,363.914124 680.220825,364.600372 680.089905,368.081116 
	C679.978516,371.042297 679.924500,373.189484 675.930298,373.080292 
	C667.377869,372.846497 658.814575,373.008667 650.260620,371.993378 
	C657.693970,371.993378 665.135376,372.179138 672.554993,371.860077 
	C674.362854,371.782318 676.099426,370.046600 677.868774,369.073242 
	C676.062195,368.052307 674.316650,366.309235 672.437317,366.150635 
	C667.488647,365.732941 662.478027,366.114532 657.500427,365.939667 
	C655.793030,365.879669 654.110413,365.113617 652.208252,364.335083 
	C652.000000,364.000000 651.997559,364.002441 651.997559,364.002441 
z"/>
<path fill="#82F2B3" opacity="1.000000" stroke="none" 
	d="
M652.001221,363.999146 
	C652.002441,363.998322 651.586121,363.753723 651.586121,363.753723 
	C651.586121,363.753723 651.899109,363.768066 651.948364,363.885254 
	C651.997559,364.002441 652.000000,364.000000 652.001221,363.999146 
z"/>
<path fill="#97F6C1" opacity="1.000000" stroke="none" 
	d="
M621.331421,355.999054 
	C618.092773,356.020996 615.554626,355.698792 615.215088,351.512634 
	C621.788452,351.512634 628.157349,351.512634 634.663391,351.512634 
	C633.305542,356.006470 633.305542,356.006470 621.331421,355.999054 
z"/>
</svg>